<?xml version="1.0" standalone="no"?>
<!DOCTYPE svg PUBLIC "-//W3C//DTD SVG 20010904//EN"
 "http://www.w3.org/TR/2001/REC-SVG-20010904/DTD/svg10.dtd">
<svg version="1.0" xmlns="http://www.w3.org/2000/svg"
 width="512.000000pt" height="512.000000pt" viewBox="0 0 512.000000 512.000000"
 preserveAspectRatio="xMidYMid meet">
<metadata>
Created by potrace 1.14, written by Peter Selinger 2001-2017
</metadata>
<g transform="translate(0.000000,512.000000) scale(0.100000,-0.100000)"
fill="#000000" stroke="none">
<path d="M1261 5104 c-96 -34 -165 -97 -210 -194 l-26 -55 -1 -2270 c0 -1698
2 -2283 11 -2321 16 -68 55 -134 107 -179 40 -34 58 -44 131 -73 20 -9 375
-12 1280 -12 1229 0 1255 0 1313 20 105 36 190 128 218 237 10 37 12 557 11
2323 l-1 2275 -25 55 c-45 97 -115 160 -213 193 -45 15 -164 17 -1300 16
-1101 0 -1256 -2 -1295 -15z"/>
</g>
</svg>
